<svg width="450" height="166" viewBox="0 0 450 166" fill="none" xmlns="http://www.w3.org/2000/svg">
<path d="M1.01999 152.994H3.48199V159.645C3.48199 160.7 3.51399 161.387 3.57299 161.698C3.67799 162.201 3.93099 162.605 4.32599 162.908C4.72399 163.214 5.26599 163.365 5.95299 163.365C6.65099 163.365 7.17899 163.222 7.53499 162.933C7.88999 162.647 8.10299 162.292 8.17399 161.875C8.24799 161.455 8.28199 160.759 8.28199 159.787V152.993H10.744V159.444C10.744 160.919 10.679 161.961 10.545 162.569C10.412 163.178 10.167 163.69 9.80899 164.111C9.45199 164.528 8.97199 164.863 8.37499 165.112C7.77599 165.36 6.99199 165.484 6.02699 165.484C4.86299 165.484 3.97999 165.349 3.37799 165.078C2.77599 164.806 2.30199 164.455 1.95299 164.023C1.60299 163.591 1.37299 163.137 1.26199 162.662C1.09999 161.958 1.02099 160.92 1.02099 159.545L1.01999 152.994ZM13.364 165.275V152.994H15.76L20.752 161.195V152.994H23.04V165.275H20.567L15.652 157.266V165.275H13.364ZM25.568 165.275V152.994H28.03V165.275H25.568ZM33.488 165.275L29.129 152.994H31.801L34.885 162.084L37.873 152.994H40.486L36.119 165.275H33.488ZM41.743 165.275V152.994H50.784V155.073H44.204V157.795H50.326V159.863H44.204V163.205H51.017V165.275H41.743ZM53.113 165.275V152.994H58.298C59.601 152.994 60.547 153.105 61.137 153.325C61.728 153.545 62.202 153.937 62.557 154.5C62.912 155.067 63.088 155.71 63.088 156.436C63.088 157.357 62.818 158.121 62.282 158.721C61.745 159.319 60.939 159.699 59.868 159.854C60.402 160.168 60.842 160.512 61.188 160.886C61.534 161.261 62 161.924 62.588 162.88L64.079 165.276H61.135L59.354 162.603C58.721 161.647 58.289 161.047 58.057 160.799C57.824 160.55 57.577 160.381 57.316 160.287C57.055 160.195 56.643 160.15 56.075 160.15H55.578V165.277H53.113V165.275ZM55.579 158.187H57.399C58.58 158.187 59.319 158.138 59.614 158.038C59.906 157.938 60.136 157.764 60.304 157.518C60.469 157.272 60.554 156.967 60.554 156.597C60.554 156.182 60.443 155.851 60.225 155.596C60.006 155.342 59.697 155.181 59.296 155.113C59.097 155.087 58.498 155.073 57.498 155.073H55.579V158.187ZM64.788 161.28L67.184 161.043C67.326 161.855 67.618 162.45 68.061 162.83C68.501 163.207 69.094 163.399 69.844 163.399C70.636 163.399 71.235 163.23 71.636 162.89C72.039 162.552 72.241 162.158 72.241 161.706C72.241 161.414 72.156 161.168 71.986 160.965C71.819 160.759 71.523 160.581 71.1 160.433C70.813 160.329 70.154 160.152 69.129 159.895C67.809 159.566 66.883 159.16 66.352 158.679C65.602 158.004 65.227 157.181 65.227 156.208C65.227 155.582 65.403 154.999 65.756 154.453C66.108 153.91 66.616 153.495 67.278 153.209C67.943 152.926 68.74 152.783 69.678 152.783C71.211 152.783 72.362 153.12 73.136 153.795C73.909 154.473 74.315 155.373 74.354 156.503L71.892 156.611C71.787 155.979 71.56 155.525 71.214 155.25C70.867 154.973 70.347 154.835 69.654 154.835C68.939 154.835 68.376 154.981 67.973 155.278C67.712 155.466 67.581 155.721 67.581 156.038C67.581 156.33 67.703 156.578 67.947 156.784C68.257 157.047 69.012 157.322 70.211 157.604C71.409 157.89 72.295 158.185 72.869 158.488C73.443 158.794 73.892 159.209 74.218 159.737C74.541 160.266 74.703 160.919 74.703 161.693C74.703 162.397 74.51 163.057 74.121 163.669C73.732 164.284 73.184 164.741 72.474 165.039C71.764 165.339 70.878 165.488 69.819 165.488C68.277 165.488 67.093 165.13 66.266 164.412C65.44 163.699 64.947 162.653 64.788 161.28ZM76.7 165.275V152.994H79.162V165.275H76.7ZM81.501 152.994H86.002C87.015 152.994 87.788 153.071 88.322 153.228C89.038 153.44 89.651 153.817 90.159 154.361C90.67 154.901 91.059 155.565 91.326 156.348C91.59 157.134 91.724 158.101 91.724 159.253C91.724 160.263 91.599 161.135 91.349 161.867C91.045 162.758 90.611 163.482 90.043 164.034C89.617 164.455 89.04 164.78 88.313 165.015C87.771 165.19 87.044 165.275 86.132 165.275H81.5V152.994H81.501ZM83.964 155.073V163.205H85.801C86.488 163.205 86.985 163.168 87.292 163.088C87.69 162.988 88.022 162.82 88.286 162.579C88.55 162.339 88.763 161.941 88.931 161.392C89.096 160.843 89.181 160.091 89.181 159.142C89.181 158.193 89.096 157.466 88.931 156.958C88.764 156.448 88.531 156.051 88.232 155.769C87.931 155.483 87.551 155.291 87.091 155.191C86.748 155.111 86.074 155.074 85.069 155.074H83.964V155.073ZM104.813 165.275H102.132L101.067 162.484H96.191L95.186 165.275H92.573L97.324 152.994H99.928L104.813 165.275ZM100.278 160.416L98.597 155.859L96.95 160.416H100.278ZM106.11 152.994H110.611C111.625 152.994 112.397 153.071 112.931 153.228C113.647 153.44 114.26 153.817 114.769 154.361C115.28 154.901 115.669 155.565 115.936 156.348C116.201 157.134 116.334 158.101 116.334 159.253C116.334 160.263 116.209 161.135 115.959 161.867C115.656 162.758 115.221 163.482 114.653 164.034C114.227 164.455 113.65 164.78 112.923 165.015C112.381 165.19 111.654 165.275 110.743 165.275H106.111L106.11 152.994ZM108.572 155.073V163.205H110.409C111.096 163.205 111.593 163.168 111.9 163.088C112.298 162.988 112.629 162.82 112.894 162.579C113.157 162.339 113.371 161.941 113.538 161.392C113.703 160.843 113.788 160.091 113.788 159.142C113.788 158.193 113.703 157.466 113.538 156.958C113.371 156.448 113.138 156.051 112.839 155.769C112.539 155.483 112.158 155.291 111.698 155.191C111.354 155.111 110.681 155.074 109.676 155.074H108.572V155.073ZM118.422 165.275V152.994H127.464V155.073H120.884V157.795H127.006V159.863H120.884V163.205H127.697V165.275H118.422ZM137.264 165.275V155.072H133.646V152.993H143.338V155.072H139.729V165.275H137.264ZM144.928 165.275V152.994H153.97V155.073H147.39V157.795H153.513V159.863H147.39V163.205H154.203V165.275H144.928ZM164.096 160.76L166.481 161.52C166.115 162.862 165.507 163.857 164.655 164.508C163.805 165.157 162.724 165.483 161.414 165.483C159.796 165.483 158.464 164.926 157.422 163.813C156.38 162.697 155.857 161.173 155.857 159.243C155.857 157.199 156.382 155.612 157.43 154.479C158.478 153.349 159.855 152.784 161.564 152.784C163.056 152.784 164.267 153.227 165.199 154.117C165.755 154.64 166.17 155.395 166.448 156.378L164.009 156.965C163.867 156.327 163.566 155.824 163.106 155.455C162.649 155.086 162.093 154.903 161.439 154.903C160.536 154.903 159.8 155.229 159.238 155.884C158.675 156.536 158.394 157.594 158.394 159.058C158.394 160.611 158.67 161.717 159.226 162.375C159.779 163.035 160.501 163.364 161.387 163.364C162.043 163.364 162.606 163.156 163.077 162.735C163.551 162.318 163.889 161.658 164.096 160.76ZM168.62 165.275V152.994H171.016L176.009 161.195V152.994H178.297V165.275H175.824L170.909 157.266V165.275H168.62ZM180.401 159.21C180.401 157.958 180.586 156.908 180.957 156.059C181.235 155.435 181.613 154.873 182.093 154.375C182.573 153.881 183.098 153.512 183.669 153.271C184.43 152.946 185.305 152.785 186.298 152.785C188.096 152.785 189.533 153.345 190.612 154.469C191.691 155.59 192.231 157.151 192.231 159.15C192.231 161.134 191.694 162.685 190.624 163.806C189.553 164.923 188.122 165.484 186.333 165.484C184.519 165.484 183.076 164.927 182.005 163.814C180.935 162.699 180.401 161.163 180.401 159.21ZM182.937 159.127C182.937 160.517 183.258 161.572 183.894 162.29C184.533 163.008 185.342 163.365 186.325 163.365C187.305 163.365 188.111 163.01 188.742 162.295C189.37 161.583 189.685 160.517 189.685 159.093C189.685 157.686 189.378 156.637 188.768 155.942C188.154 155.25 187.34 154.904 186.326 154.904C185.309 154.904 184.491 155.256 183.87 155.956C183.249 156.656 182.937 157.712 182.937 159.127ZM194.22 165.275V153.093H196.682V163.204H202.804V165.274H194.22V165.275ZM204.062 159.21C204.062 157.958 204.247 156.908 204.618 156.059C204.896 155.435 205.274 154.873 205.754 154.375C206.234 153.881 206.759 153.512 207.33 153.271C208.091 152.946 208.966 152.785 209.959 152.785C211.757 152.785 213.194 153.345 214.273 154.469C215.352 155.59 215.891 157.151 215.891 159.15C215.891 161.134 215.354 162.685 214.284 163.806C213.213 164.923 211.782 165.484 209.993 165.484C208.179 165.484 206.736 164.927 205.665 163.814C204.595 162.699 204.062 161.163 204.062 159.21ZM206.598 159.127C206.598 160.517 206.919 161.572 207.555 162.29C208.194 163.008 209.003 163.365 209.986 163.365C210.966 163.365 211.772 163.01 212.403 162.295C213.031 161.583 213.346 160.517 213.346 159.093C213.346 157.686 213.039 156.637 212.429 155.942C211.816 155.25 211.001 154.904 209.987 154.904C208.97 154.904 208.153 155.256 207.531 155.956C206.91 156.656 206.598 157.712 206.598 159.127ZM208.464 152.29L209.611 149.785H212.232L209.943 152.29H208.464ZM223.488 160.76V158.69H228.795V163.582C228.279 164.085 227.531 164.528 226.552 164.911C225.572 165.291 224.582 165.483 223.579 165.483C222.304 165.483 221.191 165.214 220.242 164.676C219.294 164.136 218.581 163.367 218.104 162.363C217.627 161.359 217.388 160.27 217.388 159.091C217.388 157.813 217.655 156.675 218.186 155.68C218.72 154.688 219.498 153.924 220.526 153.395C221.307 152.987 222.281 152.784 223.445 152.784C224.959 152.784 226.143 153.104 226.992 153.742C227.844 154.383 228.392 155.266 228.636 156.396L226.191 156.857C226.019 156.254 225.694 155.776 225.22 155.427C224.746 155.079 224.155 154.904 223.445 154.904C222.369 154.904 221.514 155.247 220.878 155.933C220.242 156.622 219.927 157.641 219.927 158.993C219.927 160.449 220.248 161.544 220.892 162.273C221.534 163.002 222.377 163.365 223.419 163.365C223.936 163.365 224.453 163.262 224.972 163.059C225.489 162.856 225.934 162.607 226.306 162.318V160.76H223.488ZM230.991 165.275V152.994H233.453V165.275H230.991ZM243.605 160.76L245.99 161.52C245.624 162.862 245.016 163.857 244.164 164.508C243.315 165.157 242.233 165.483 240.924 165.483C239.306 165.483 237.974 164.926 236.931 163.813C235.889 162.697 235.367 161.173 235.367 159.243C235.367 157.199 235.892 155.612 236.94 154.479C237.989 153.349 239.365 152.784 241.075 152.784C242.566 152.784 243.778 153.227 244.71 154.117C245.266 154.64 245.681 155.395 245.959 156.378L243.52 156.965C243.378 156.327 243.077 155.824 242.617 155.455C242.16 155.086 241.603 154.903 240.95 154.903C240.047 154.903 239.312 155.229 238.749 155.884C238.186 156.536 237.905 157.594 237.905 159.058C237.905 160.611 238.181 161.717 238.737 162.375C239.291 163.035 240.012 163.364 240.898 163.364C241.554 163.364 242.116 163.156 242.588 162.735C243.06 162.318 243.398 161.658 243.605 160.76ZM259.104 165.275H256.423L255.358 162.484H250.482L249.477 165.275H246.864L251.615 152.994H254.219L259.104 165.275ZM254.569 160.416L252.888 155.859L251.241 160.416H254.569ZM264.524 165.275V152.994H272.887V155.073H266.99V157.978H272.081V160.057H266.99V165.275H264.524ZM274.918 165.275V152.994H283.96V155.073H277.38V157.795H283.503V159.863H277.38V163.205H284.193V165.275H274.918ZM286.274 152.994H290.775C291.789 152.994 292.561 153.071 293.095 153.228C293.811 153.44 294.424 153.817 294.933 154.361C295.444 154.901 295.832 155.565 296.099 156.348C296.364 157.134 296.497 158.101 296.497 159.253C296.497 160.263 296.372 161.135 296.122 161.867C295.819 162.758 295.384 163.482 294.816 164.034C294.39 164.455 293.813 164.78 293.086 165.015C292.544 165.19 291.817 165.275 290.906 165.275H286.274V152.994ZM288.735 155.073V163.205H290.572C291.259 163.205 291.756 163.168 292.063 163.088C292.461 162.988 292.792 162.82 293.057 162.579C293.321 162.339 293.534 161.941 293.701 161.392C293.866 160.843 293.951 160.091 293.951 159.142C293.951 158.193 293.866 157.466 293.701 156.958C293.534 156.448 293.301 156.051 293.002 155.769C292.702 155.483 292.321 155.291 291.861 155.191C291.518 155.111 290.844 155.074 289.839 155.074H288.735V155.073ZM298.586 165.275V152.994H307.627V155.073H301.047V157.795H307.169V159.863H301.047V163.205H307.86V165.275H298.586ZM309.956 165.275V152.994H315.141C316.444 152.994 317.39 153.105 317.98 153.325C318.571 153.545 319.045 153.937 319.4 154.5C319.755 155.067 319.931 155.71 319.931 156.436C319.931 157.357 319.662 158.121 319.125 158.721C318.588 159.319 317.782 159.699 316.711 159.854C317.245 160.168 317.685 160.512 318.031 160.886C318.377 161.261 318.843 161.924 319.431 162.88L320.922 165.276H317.978L316.197 162.603C315.564 161.647 315.132 161.047 314.899 160.799C314.666 160.55 314.419 160.381 314.158 160.287C313.897 160.195 313.485 160.15 312.917 160.15H312.42V165.277H309.956V165.275ZM312.422 158.187H314.242C315.423 158.187 316.162 158.138 316.457 158.038C316.75 157.938 316.98 157.764 317.147 157.518C317.312 157.272 317.397 156.967 317.397 156.597C317.397 156.182 317.286 155.851 317.068 155.596C316.849 155.342 316.54 155.181 316.139 155.113C315.94 155.087 315.341 155.073 314.341 155.073H312.422V158.187ZM333.253 165.275H330.572L329.507 162.484H324.631L323.626 165.275H321.014L325.765 152.994H328.369L333.253 165.275ZM328.718 160.416L327.037 155.859L325.39 160.416H328.718ZM334.624 165.275V153.093H337.086V163.204H343.209V165.274H334.624V165.275ZM349.385 152.994H353.886C354.9 152.994 355.672 153.071 356.206 153.228C356.922 153.44 357.535 153.817 358.044 154.361C358.555 154.901 358.944 155.565 359.21 156.348C359.474 157.134 359.608 158.101 359.608 159.253C359.608 160.263 359.483 161.135 359.233 161.867C358.93 162.758 358.495 163.482 357.927 164.034C357.501 164.455 356.924 164.78 356.197 165.015C355.655 165.19 354.928 165.275 354.017 165.275H349.385V152.994ZM351.847 155.073V163.205H353.684C354.371 163.205 354.868 163.168 355.175 163.088C355.573 162.988 355.904 162.82 356.169 162.579C356.432 162.339 356.646 161.941 356.813 161.392C356.978 160.843 357.063 160.091 357.063 159.142C357.063 158.193 356.978 157.466 356.813 156.958C356.646 156.448 356.413 156.051 356.114 155.769C355.814 155.483 355.433 155.291 354.973 155.191C354.629 155.111 353.956 155.074 352.951 155.074H351.847V155.073ZM361.198 159.21C361.198 157.958 361.383 156.908 361.755 156.059C362.033 155.435 362.41 154.873 362.891 154.375C363.371 153.881 363.896 153.512 364.467 153.271C365.228 152.946 366.103 152.785 367.097 152.785C368.895 152.785 370.332 153.345 371.411 154.469C372.49 155.59 373.029 157.151 373.029 159.15C373.029 161.134 372.492 162.685 371.422 163.806C370.351 164.923 368.92 165.484 367.131 165.484C365.317 165.484 363.874 164.927 362.803 163.814C361.732 162.699 361.198 161.163 361.198 159.21ZM363.734 159.127C363.734 160.517 364.054 161.572 364.691 162.29C365.33 163.008 366.139 163.365 367.122 163.365C368.102 163.365 368.908 163.01 369.539 162.295C370.167 161.583 370.482 160.517 370.482 159.093C370.482 157.686 370.175 156.637 369.564 155.942C368.951 155.25 368.136 154.904 367.122 154.904C366.105 154.904 365.287 155.256 364.666 155.956C364.046 156.656 363.734 157.712 363.734 159.127ZM379.684 165.275V152.994H383.634C385.131 152.994 386.108 153.057 386.562 153.18C387.261 153.362 387.849 153.763 388.32 154.381C388.792 154.998 389.028 155.796 389.028 156.772C389.028 157.527 388.891 158.162 388.619 158.673C388.346 159.188 388.003 159.591 387.583 159.885C387.165 160.177 386.739 160.371 386.308 160.466C385.72 160.583 384.868 160.643 383.752 160.643H382.147V165.276H379.684V165.275ZM382.146 155.073V158.556H383.492C384.464 158.556 385.114 158.493 385.44 158.364C385.766 158.235 386.022 158.035 386.209 157.76C386.394 157.486 386.487 157.168 386.487 156.805C386.487 156.359 386.356 155.99 386.095 155.698C385.837 155.409 385.504 155.226 385.106 155.155C384.811 155.098 384.22 155.072 383.334 155.072H382.146V155.073ZM400.784 165.275H398.103L397.038 162.484H392.162L391.157 165.275H388.544L393.295 152.994H395.899L400.784 165.275ZM396.249 160.416L394.568 155.859L392.921 160.416H396.249ZM402.095 165.275V152.994H407.28C408.583 152.994 409.529 153.105 410.119 153.325C410.71 153.545 411.184 153.937 411.539 154.5C411.894 155.067 412.07 155.71 412.07 156.436C412.07 157.357 411.8 158.121 411.264 158.721C410.727 159.319 409.921 159.699 408.85 159.854C409.384 160.168 409.825 160.512 410.171 160.886C410.517 161.261 410.983 161.924 411.571 162.88L413.062 165.276H410.118L408.337 162.603C407.704 161.647 407.272 161.047 407.039 160.799C406.806 160.55 406.559 160.381 406.298 160.287C406.037 160.195 405.625 160.15 405.057 160.15H404.56V165.277H402.095V165.275ZM404.56 158.187H406.38C407.561 158.187 408.299 158.138 408.595 158.038C408.888 157.938 409.117 157.764 409.285 157.518C409.45 157.272 409.535 156.967 409.535 156.597C409.535 156.182 409.424 155.851 409.205 155.596C408.987 155.342 408.677 155.181 408.277 155.113C408.078 155.087 407.479 155.073 406.479 155.073H404.56V158.187ZM425.392 165.275H422.711L421.646 162.484H416.77L415.765 165.275H413.152L417.903 152.994H420.507L425.392 165.275ZM420.857 160.416L419.176 155.859L417.529 160.416H420.857ZM426.72 165.275V152.994H429.116L434.108 161.195V152.994H436.397V165.275H433.924L429.009 157.266V165.275H426.72ZM450 165.275H447.319L446.254 162.484H441.378L440.373 165.275H437.76L442.511 152.994H445.115L450 165.275ZM445.465 160.416L443.784 155.859L442.137 160.416H445.465ZM442.37 152.29L443.517 149.785H446.138L443.849 152.29H442.37Z" fill="white"/>
<path fill-rule="evenodd" clip-rule="evenodd" d="M184.008 142.815V28.8469H290.868V51.2869H212.554V142.815H184.008Z" fill="#F8C520"/>
<path d="M373.097 142.495V57.6929H409.15C418.213 57.6929 424.787 58.462 428.894 59.983C433.001 61.503 436.298 64.208 438.766 68.098C441.234 72.008 442.459 76.45 442.459 81.465C442.459 87.822 440.583 93.0939 436.851 97.2399C433.119 101.367 427.512 103.993 420.069 105.059C423.781 107.231 426.841 109.6 429.25 112.187C431.659 114.773 434.897 119.354 438.984 125.949L449.35 142.495H428.875L416.495 124.034C412.092 117.439 409.091 113.293 407.472 111.575C405.853 109.857 404.135 108.692 402.319 108.041C400.503 107.409 397.64 107.093 393.691 107.093H390.236V142.495H373.097ZM87.589 0.506958V82.5919C87.589 106.831 79.845 122.717 58.05 122.717C36.255 122.717 28.517 106.83 28.517 82.5919V0.506958H0V91.35C0 129.435 21.586 145.127 58.049 145.127C94.509 145.127 116.097 129.435 116.097 91.35V22.91H149.053V142.681H177.57V22.91H291.043V0.506958H87.589ZM218.833 57.991V142.815H245.659V80.416H290.868V57.99L218.833 57.991ZM303.091 142.495V57.6929H330.556C340.962 57.6929 347.753 58.127 350.912 58.976C355.77 60.24 359.856 63.004 363.134 67.269C366.411 71.533 368.051 77.0419 368.051 83.7749C368.051 88.9869 367.103 93.371 365.208 96.905C363.313 100.459 360.924 103.243 358.002 105.277C355.1 107.291 352.138 108.634 349.137 109.285C345.05 110.094 339.127 110.509 331.367 110.509H320.21V142.495H303.091ZM320.21 72.047V96.096H329.568C336.321 96.096 340.842 95.661 343.113 94.773C345.383 93.884 347.16 92.5029 348.464 90.6069C349.747 88.7119 350.399 86.5209 350.399 84.0119C350.399 80.9319 349.49 78.3849 347.674 76.3719C345.877 74.3779 343.567 73.1129 340.803 72.6199C338.75 72.2249 334.643 72.047 328.482 72.047H320.21ZM390.234 93.548H402.891C411.105 93.548 416.238 93.212 418.291 92.521C420.325 91.829 421.924 90.625 423.089 88.927C424.235 87.229 424.827 85.116 424.827 82.569C424.827 79.706 424.057 77.416 422.536 75.658C421.016 73.901 418.864 72.795 416.08 72.322C414.698 72.144 410.532 72.046 403.582 72.046H390.235L390.234 93.548Z" fill="white"/>
</svg>
