<svg width="857" height="151" viewBox="0 0 857 151" fill="none" xmlns="http://www.w3.org/2000/svg">
<path d="M179.369 131H147.409L183.418 21.9091H223.901L259.909 131H227.949L204.085 51.9517H203.233L179.369 131ZM173.403 87.9602H233.489V110.119H173.403V87.9602Z" fill="white"/>
<path d="M284.425 21.9091L306.797 98.8267H307.65L330.022 21.9091H363.474L327.465 131H286.982L250.974 21.9091H284.425Z" fill="white"/>
<path d="M432.787 56C432.503 52.4489 431.172 49.679 428.792 47.6903C426.449 45.7017 422.88 44.7074 418.086 44.7074C415.032 44.7074 412.528 45.0802 410.575 45.826C408.657 46.5362 407.237 47.5128 406.314 48.7557C405.39 49.9986 404.911 51.419 404.875 53.017C404.804 54.331 405.035 55.5206 405.568 56.5859C406.136 57.6158 407.024 58.5568 408.231 59.4091C409.439 60.2258 410.983 60.9716 412.865 61.6463C414.748 62.321 416.985 62.9247 419.577 63.4574L428.526 65.375C434.563 66.6534 439.73 68.3402 444.027 70.4354C448.324 72.5305 451.839 74.9986 454.574 77.8395C457.308 80.6449 459.314 83.8054 460.593 87.321C461.907 90.8366 462.581 94.6719 462.617 98.8267C462.581 106 460.788 112.072 457.237 117.044C453.686 122.016 448.608 125.798 442.002 128.39C435.433 130.982 427.532 132.278 418.299 132.278C408.817 132.278 400.543 130.876 393.476 128.07C386.445 125.265 380.976 120.95 377.07 115.126C373.199 109.267 371.246 101.774 371.211 92.6477H399.336C399.513 95.9858 400.348 98.7912 401.839 101.064C403.331 103.337 405.426 105.059 408.125 106.231C410.859 107.403 414.108 107.989 417.873 107.989C421.033 107.989 423.679 107.598 425.809 106.817C427.94 106.036 429.556 104.952 430.657 103.567C431.757 102.183 432.326 100.602 432.361 98.8267C432.326 97.1577 431.775 95.7017 430.71 94.4588C429.68 93.1804 427.975 92.044 425.596 91.0497C423.217 90.0199 420.003 89.0611 415.955 88.1733L405.088 85.8295C395.429 83.7344 387.812 80.2365 382.237 75.3359C376.697 70.3998 373.945 63.6704 373.98 55.1477C373.945 48.223 375.792 42.1683 379.52 36.9837C383.284 31.7635 388.487 27.6974 395.127 24.7855C401.804 21.8736 409.456 20.4176 418.086 20.4176C426.892 20.4176 434.51 21.8913 440.937 24.8388C447.365 27.7862 452.319 31.941 455.799 37.3033C459.314 42.63 461.09 48.8622 461.125 56H432.787Z" fill="white"/>
<path d="M520.651 21.9091H540.254V98.6136C540.218 105.645 538.727 111.7 535.779 116.778C532.832 121.82 528.712 125.709 523.421 128.443C518.165 131.142 512.04 132.491 505.044 132.491C498.652 132.491 492.899 131.355 487.786 129.082C482.707 126.774 478.677 123.365 475.694 118.855C472.711 114.345 471.219 108.734 471.219 102.023H490.875C490.911 104.97 491.55 107.509 492.793 109.64C494.071 111.771 495.829 113.404 498.066 114.54C500.303 115.677 502.878 116.245 505.79 116.245C508.95 116.245 511.631 115.588 513.833 114.274C516.035 112.925 517.704 110.936 518.84 108.308C520.012 105.68 520.616 102.449 520.651 98.6136V21.9091Z" fill="white"/>
<path d="M659.172 76.4545C659.172 88.2088 656.971 98.2763 652.567 106.657C648.199 115.002 642.233 121.394 634.669 125.833C627.141 130.272 618.6 132.491 609.048 132.491C599.495 132.491 590.937 130.272 583.373 125.833C575.845 121.359 569.879 114.949 565.475 106.604C561.108 98.223 558.924 88.1733 558.924 76.4545C558.924 64.7003 561.108 54.6506 565.475 46.3054C569.879 37.9247 575.845 31.5149 583.373 27.076C590.937 22.6371 599.495 20.4176 609.048 20.4176C618.6 20.4176 627.141 22.6371 634.669 27.076C642.233 31.5149 648.199 37.9247 652.567 46.3054C656.971 54.6506 659.172 64.7003 659.172 76.4545ZM639.304 76.4545C639.304 68.1804 638.007 61.2024 635.415 55.5206C632.858 49.8033 629.307 45.4886 624.762 42.5767C620.216 39.6293 614.978 38.1555 609.048 38.1555C603.118 38.1555 597.88 39.6293 593.334 42.5767C588.789 45.4886 585.22 49.8033 582.627 55.5206C580.071 61.2024 578.792 68.1804 578.792 76.4545C578.792 84.7287 580.071 91.7244 582.627 97.4418C585.22 103.124 588.789 107.438 593.334 110.386C597.88 113.298 603.118 114.754 609.048 114.754C614.978 114.754 620.216 113.298 624.762 110.386C629.307 107.438 632.858 103.124 635.415 97.4418C638.007 91.7244 639.304 84.7287 639.304 76.4545Z" fill="white"/>
<path d="M677.856 131V21.9091H719.617C727.501 21.9091 734.052 23.152 739.273 25.6378C744.528 28.0881 748.452 31.4439 751.045 35.7052C753.672 39.9666 754.986 44.7962 754.986 50.1939C754.986 54.6328 754.134 58.4325 752.43 61.593C750.725 64.718 748.434 67.2571 745.558 69.2102C742.682 71.1633 739.468 72.566 735.917 73.4183V74.4837C739.787 74.6967 743.498 75.8864 747.05 78.0525C750.636 80.1832 753.566 83.2017 755.839 87.1079C758.111 91.0142 759.248 95.7372 759.248 101.277C759.248 106.923 757.881 112.001 755.146 116.511C752.412 120.986 748.292 124.519 742.788 127.111C737.284 129.704 730.359 131 722.014 131H677.856ZM697.618 114.487H718.871C726.045 114.487 731.211 113.12 734.372 110.386C737.568 107.616 739.166 104.065 739.166 99.7322C739.166 96.5007 738.367 93.5888 736.769 90.9964C735.171 88.3686 732.898 86.3089 729.951 84.8175C727.003 83.2905 723.488 82.527 719.404 82.527H697.618V114.487ZM697.618 68.3047H717.167C720.576 68.3047 723.648 67.6832 726.382 66.4403C729.116 65.1619 731.265 63.3686 732.827 61.0604C734.425 58.7166 735.224 55.9467 735.224 52.7507C735.224 48.5248 733.733 45.0447 730.75 42.3104C727.802 39.576 723.417 38.2088 717.593 38.2088H697.618V68.3047Z" fill="white"/>
<path d="M835.726 51.8984C835.229 47.2464 833.134 43.6243 829.44 41.032C825.783 38.4396 821.024 37.1435 815.165 37.1435C811.045 37.1435 807.512 37.7649 804.565 39.0078C801.617 40.2507 799.362 41.9375 797.8 44.0682C796.237 46.1989 795.438 48.6314 795.403 51.3658C795.403 53.6385 795.918 55.6094 796.947 57.2784C798.013 58.9474 799.451 60.3679 801.262 61.5398C803.073 62.6761 805.08 63.6349 807.281 64.4162C809.483 65.1974 811.702 65.8544 813.94 66.3871L824.167 68.9439C828.286 69.9027 832.246 71.1989 836.045 72.8324C839.881 74.4659 843.308 76.5256 846.326 79.0114C849.38 81.4972 851.795 84.4979 853.57 88.0135C855.346 91.5291 856.234 95.6484 856.234 100.371C856.234 106.763 854.6 112.392 851.333 117.257C848.066 122.087 843.343 125.869 837.164 128.603C831.021 131.302 823.581 132.651 814.845 132.651C806.358 132.651 798.989 131.337 792.739 128.71C786.525 126.082 781.66 122.246 778.144 117.204C774.664 112.161 772.782 106.018 772.498 98.7734H791.94C792.224 102.573 793.396 105.734 795.456 108.255C797.516 110.776 800.197 112.658 803.499 113.901C806.837 115.144 810.566 115.766 814.685 115.766C818.982 115.766 822.746 115.126 825.978 113.848C829.245 112.534 831.802 110.723 833.648 108.415C835.495 106.071 836.436 103.337 836.472 100.212C836.436 97.3707 835.602 95.027 833.968 93.1804C832.335 91.2983 830.044 89.7358 827.097 88.4929C824.185 87.2145 820.776 86.0781 816.869 85.0838L804.458 81.8878C795.474 79.5795 788.371 76.0817 783.151 71.3942C777.967 66.6712 775.374 60.4034 775.374 52.5909C775.374 46.1633 777.114 40.5348 780.594 35.7052C784.11 30.8757 788.886 27.1293 794.923 24.4659C800.96 21.767 807.796 20.4176 815.431 20.4176C823.173 20.4176 829.955 21.767 835.779 24.4659C841.639 27.1293 846.237 30.8402 849.575 35.5987C852.913 40.3217 854.636 45.755 854.742 51.8984H835.726Z" fill="white"/>
<path d="M33.2386 113.862H0L37.4489 0H79.5511L117 113.862H83.7614L58.9432 31.3564H58.0568L33.2386 113.862Z" fill="#3855F8"/>
<path d="M85.5341 35.5818L95.03 47.0628L117 113.862C116.963 121.274 113.99 127.575 110.297 133.209C106.641 138.806 101.581 143.179 95.1179 146.33C88.6918 149.443 81.2869 151 72.9034 151C65.6278 151 58.9801 149.74 52.9602 147.219C46.9403 144.662 42.1392 140.659 38.5568 135.211C34.9744 129.725 33.2017 122.609 33.2386 113.862L64.0398 113.862C64.1506 116.716 64.6307 119.125 65.4801 121.089C66.3665 123.054 67.5852 124.536 69.1364 125.537C70.7244 126.5 72.6449 126.982 74.8977 126.982C77.1875 126.982 79.1079 126.482 80.6591 125.481C82.2472 124.48 83.4474 122.998 84.2599 121.033C85.0724 119.032 83.7244 116.79 83.7614 113.862L85.5341 35.5818Z" fill="#1F2D85"/>
</svg>
